<?xml version="1.0" encoding="UTF-8"?>
<svg version="1.1" xmlns="http://www.w3.org/2000/svg" width="500" height="500">
<path d="M0 0 C165 0 330 0 500 0 C500 165 500 330 500 500 C335 500 170 500 0 500 C0 335 0 170 0 0 Z " fill="#FEFEFE" transform="translate(0,0)"/>
<path d="M0 0 C2.87555814 0.99632653 4.29367028 2.26891634 6.42821693 4.43190384 C7.19251015 5.19649918 7.95680336 5.96109451 8.74425697 6.74885941 C9.55584267 7.58109024 10.36742836 8.41332108 11.20360756 9.27077103 C12.05032021 10.12314346 12.89703285 10.9755159 13.76940346 11.8537178 C16.47575092 14.58245084 19.16789028 17.32473275 21.85985756 20.06764603 C23.67273561 21.90059165 25.48652754 23.73263389 27.30126381 25.56373978 C30.63705045 28.93219103 33.96753224 32.3056943 37.29149818 35.68581009 C38.64746084 37.06324344 40.00356148 38.44054098 41.35985756 39.81764603 C41.88047768 40.3470076 42.40109779 40.87636917 42.93749428 41.421772 C45.28156406 43.78971258 47.63098111 45.89732556 50.35985756 47.81764603 C50.492631 47.17956009 50.62540443 46.54147415 50.76220131 45.88405228 C50.93880287 45.05776321 51.11540443 44.23147415 51.29735756 43.38014603 C51.471381 42.55643509 51.64540443 41.73272415 51.82470131 40.88405228 C52.35985756 38.81764603 52.35985756 38.81764603 53.35985756 37.81764603 C54.8363842 37.71883806 56.31752992 37.68685357 57.79735756 37.68483353 C58.69196693 37.68354446 59.58657631 37.6822554 60.50829506 37.68092728 C61.44931068 37.68479446 62.39032631 37.68866165 63.35985756 37.69264603 C64.771381 37.68684525 64.771381 37.68684525 66.21142006 37.68092728 C67.55333412 37.68286087 67.55333412 37.68286087 68.92235756 37.68483353 C69.74864662 37.68596146 70.57493568 37.68708939 71.42626381 37.6882515 C73.35985756 37.81764603 73.35985756 37.81764603 74.35985756 38.81764603 C74.28111959 40.44788292 74.19351926 42.07812076 74.06402016 43.70511246 C72.27718234 63.57150555 72.27718234 63.57150555 80.25048256 81.00123978 C85.65342257 86.89077344 92.20097284 93.23820367 99.35985756 96.81764603 C99.35985756 98.79764603 99.35985756 100.77764603 99.35985756 102.81764603 C96.85488752 104.07013104 95.15132482 103.93139009 92.35204506 103.91530228 C91.36591225 103.91207962 90.37977943 103.90885696 89.36376381 103.90553665 C88.33122475 103.89715775 87.29868568 103.88877884 86.23485756 103.88014603 C84.6744474 103.87337845 84.6744474 103.87337845 83.08251381 103.86647415 C80.50823794 103.85466555 77.9340761 103.83819678 75.35985756 103.81764603 C75.36207817 104.69239075 75.36429878 105.56713547 75.36658669 106.4683876 C75.38658734 114.69439949 75.40183053 122.92040326 75.41166973 131.14643383 C75.41689812 135.37595974 75.42399496 139.60546563 75.43529701 143.83498001 C75.44612747 147.91333146 75.45213473 151.99166359 75.4547348 156.07002831 C75.45658877 157.62942242 75.46020883 159.18881543 75.46558762 160.74820137 C75.47280017 162.92493765 75.47384841 165.10159317 75.47338295 167.27833939 C75.47560356 168.51966125 75.47782417 169.76098312 75.48011208 171.03992081 C75.35985756 173.81764603 75.35985756 173.81764603 74.35985756 174.81764603 C72.30429095 174.9117829 70.24545575 174.935076 68.18773842 174.93117142 C67.22191589 174.93139046 67.22191589 174.93139046 66.2365818 174.93161392 C64.09925453 174.93091488 61.96201343 174.92312293 59.82470131 174.91530228 C58.34639471 174.91343807 56.86808749 174.91201418 55.38978004 174.91101456 C51.49186954 174.90718961 47.59399607 174.89735954 43.69610023 174.88631058 C39.72139423 174.87609594 35.74668227 174.87151683 31.77196693 174.86647415 C23.96791356 174.85573725 16.16389074 174.83866112 8.35985756 174.81764603 C6.4399036 166.74572373 4.90242734 159.11378758 5.03173256 150.80592728 C5.03360573 149.94500977 5.0354789 149.08409225 5.03740883 148.19708633 C5.04403688 146.41016536 5.05776061 144.62325651 5.07860756 142.83644485 C5.11024817 140.09631827 5.11964024 137.35676684 5.12548256 134.61647415 C5.13463642 132.86711813 5.14500696 131.11776795 5.15673256 129.36842728 C5.16098244 128.55287872 5.16523232 127.73733017 5.16961098 126.89706802 C5.21124032 123.62386271 5.31781281 120.94378027 6.35985756 117.81764603 C7.01985756 117.81764603 7.67985756 117.81764603 8.35985756 117.81764603 C8.44235756 116.58014603 8.52485756 115.34264603 8.60985756 114.06764603 C8.80473621 111.14446633 9.25188722 109.9588762 11.05907631 107.59498978 C14.66700787 104.80787796 17.67145106 105.09633774 22.10204506 105.21608353 C27.87802584 106.28263154 33.20255125 109.66033972 37.35985756 113.81764603 C36.63513683 106.08729153 30.68613301 99.13043723 25.35985756 93.81764603 C17.65457067 87.96162799 10.70685057 88.54620223 1.29735756 88.44264603 C-0.64107018 88.38657181 -0.64107018 88.38657181 -2.61865807 88.32936478 C-4.47200768 88.31196243 -4.47200768 88.31196243 -6.36279869 88.29420853 C-7.49467613 88.27438919 -8.62655357 88.25456985 -9.79273033 88.23414993 C-12.86052441 88.52339154 -12.86052441 88.52339154 -14.39551353 91.31764603 C-14.80624107 92.14264603 -15.21696861 92.96764603 -15.64014244 93.81764603 C-17.83154869 94.34108353 -17.83154869 94.34108353 -20.20264244 94.19264603 C-20.9876815 94.1591304 -21.77272057 94.12561478 -22.58154869 94.09108353 C-24.64014244 93.81764603 -24.64014244 93.81764603 -26.64014244 92.81764603 C-28.67761875 92.58906489 -30.72054547 92.40740325 -32.76514244 92.25514603 C-34.40869713 92.12946243 -34.40869713 92.12946243 -36.08545494 92.00123978 C-36.92850182 91.94065384 -37.77154869 91.8800679 -38.64014244 91.81764603 C-38.66707819 93.94257744 -38.68650872 96.06760515 -38.70264244 98.19264603 C-38.714244 99.3760054 -38.72584557 100.55936478 -38.73779869 101.77858353 C-38.85480837 104.73686124 -38.85480837 104.73686124 -37.64014244 106.81764603 C-29.22543765 106.97367309 -29.22543765 106.97367309 -20.89014244 106.00514603 C-16.38558301 105.3968661 -13.81937287 106.96734559 -10.17139244 109.49342728 C-8.64014244 110.81764603 -8.64014244 110.81764603 -7.64014244 112.81764603 C-7.60015044 114.81724615 -7.59667445 116.81811845 -7.64014244 118.81764603 C-6.98014244 118.81764603 -6.32014244 118.81764603 -5.64014244 118.81764603 C-3.98246944 122.13299203 -4.47700519 125.83674761 -4.47217369 129.48170853 C-4.46718109 130.7807663 -4.46718109 130.7807663 -4.46208763 132.10606766 C-4.45701763 133.94367822 -4.45467933 135.78129801 -4.45483971 137.61891556 C-4.45266739 140.4105778 -4.43455205 143.20183574 -4.41553307 145.99342728 C-4.4125962 147.78118635 -4.41061337 149.56894729 -4.40967369 151.35670853 C-4.40248817 152.18409531 -4.39530266 153.01148209 -4.3878994 153.86394119 C-4.40857241 159.197577 -5.21650766 163.67823493 -6.64014244 168.81764603 C-6.98913281 170.81497345 -7.3252238 172.81466391 -7.64014244 174.81764603 C-16.34131173 174.84078771 -25.04247047 174.85857046 -33.74366379 174.8694582 C-37.78371198 174.87468302 -41.82373916 174.88177342 -45.86377525 174.89308548 C-49.76058344 174.90392857 -53.65737139 174.90992589 -57.5541935 174.91252327 C-59.04298407 174.91437495 -60.53177351 174.91799066 -62.0205555 174.92337608 C-64.10129529 174.93060537 -66.18195076 174.93163617 -68.26270103 174.93117142 C-69.44850761 174.93339203 -70.63431419 174.93561264 -71.85605431 174.93790054 C-74.64014244 174.81764603 -74.64014244 174.81764603 -76.64014244 173.81764603 C-76.64014244 150.71764603 -76.64014244 127.61764603 -76.64014244 103.81764603 C-83.90014244 103.81764603 -91.16014244 103.81764603 -98.64014244 103.81764603 C-99.64014244 96.81764603 -99.64014244 96.81764603 -98.26227188 94.43863297 C-97.55253283 93.72847534 -96.84279377 93.01831772 -96.11154747 92.28664017 C-94.90018875 91.04577904 -94.90018875 91.04577904 -93.66435814 89.77985001 C-92.76159645 88.89642426 -91.85883476 88.0129985 -90.92871666 87.10280228 C-89.97964242 86.1461596 -89.03229037 85.18780573 -88.08653831 84.22787857 C-85.515677 81.62910175 -82.92035049 79.05612086 -80.31907225 76.48783493 C-77.60087552 73.7973406 -74.90302927 71.08657299 -72.20218468 68.37868118 C-67.66448892 63.83558213 -63.11088366 59.30892145 -58.547369 54.79176712 C-53.26908367 49.56673358 -48.01613996 44.31724176 -42.77617633 39.05379772 C-37.73639116 33.99246828 -32.67981806 28.94824676 -27.61512184 23.91185379 C-25.45904529 21.76730371 -23.30893754 19.61701874 -21.1633625 17.46196365 C-18.6374384 14.92650725 -16.09715174 12.40638315 -13.54491425 9.8974247 C-12.16303193 8.53201176 -10.7958448 7.15177673 -9.42909813 5.77121353 C-8.6046067 4.96653137 -7.78011528 4.16184921 -6.93063927 3.33278275 C-6.21863806 2.62564133 -5.50663685 1.91849991 -4.77305984 1.18992996 C-2.64014244 -0.18235397 -2.64014244 -0.18235397 0 0 Z " fill="#020202" transform="translate(250.6401424407959,119.18235397338867)"/>
<path d="M0 0 C0.66 0.33 1.32 0.66 2 1 C1.319375 1.763125 0.63875 2.52625 -0.0625 3.3125 C-0.701875 4.199375 -1.34125 5.08625 -2 6 C-1.67 6.99 -1.34 7.98 -1 9 C-2.98 9.99 -2.98 9.99 -5 11 C-4.50769231 4.6 -4.50769231 4.6 -1.9375 1.5625 C-0.9784375 0.7890625 -0.9784375 0.7890625 0 0 Z " fill="#2E2E2E" transform="translate(264,225)"/>
<path d="M0 0 C0.99 0.33 1.98 0.66 3 1 C2.67 2.65 2.34 4.3 2 6 C1.01 6 0.02 6 -1 6 C-1.33 5.01 -1.66 4.02 -2 3 C-1.34 2.01 -0.68 1.02 0 0 Z " fill="#171717" transform="translate(323,288)"/>
<path d="M0 0 C2.875 -0.125 2.875 -0.125 6 0 C6.66 0.66 7.32 1.32 8 2 C7.67 2.99 7.34 3.98 7 5 C3.535 3.02 3.535 3.02 0 1 C0 0.67 0 0.34 0 0 Z " fill="#2F2F2F" transform="translate(228,225)"/>
</svg>